<?xml version="1.0" encoding="UTF-8"?>
<!DOCTYPE svg PUBLIC "-//W3C//DTD SVG 1.1//EN" "http://www.w3.org/Graphics/SVG/1.1/DTD/svg11.dtd">
<!-- Creator: CorelDRAW -->
<svg xmlns="http://www.w3.org/2000/svg" xml:space="preserve" width="2.51324in" height="2.51324in" version="1.1" style="shape-rendering:geometricPrecision; text-rendering:geometricPrecision; image-rendering:optimizeQuality; fill-rule:evenodd; clip-rule:evenodd"
viewBox="0 0 321.37 321.37"
 xmlns:xlink="http://www.w3.org/1999/xlink"
 xmlns:xodm="http://www.corel.com/coreldraw/odm/2003">
 <defs>
  <style type="text/css">
   <![CDATA[
    .fil0 {fill:#030B31}
    .fil1 {fill:url(#id0)}
   ]]>
  </style>
  <linearGradient id="id0" gradientUnits="userSpaceOnUse" x1="238.85" y1="207.42" x2="99.97" y2="105.17">
   <stop offset="0" style="stop-opacity:1; stop-color:#87DD12"/>
   <stop offset="1" style="stop-opacity:1; stop-color:#0EB1E4"/>
  </linearGradient>
 </defs>
 <g id="Layer_x0020_1">
  <metadata id="CorelCorpID_0Corel-Layer"/>
  <g id="Liqwifi_Icon_Circle_Full_DarkM">
   <path class="fil0" d="M160.68 0c88.74,0 160.68,71.94 160.68,160.68 0,88.74 -71.94,160.68 -160.68,160.68 -88.74,0 -160.68,-71.94 -160.68,-160.68 0,-88.74 71.94,-160.68 160.68,-160.68z"/>
   <path class="fil1" d="M160.68 41.36l0 0c13.88,0 25.24,11.36 25.24,25.24l0 0c0,13.88 -11.36,25.24 -25.24,25.24l-0 0c-13.88,0 -25.24,-11.36 -25.24,-25.24l0 -0c0,-13.88 11.36,-25.24 25.24,-25.24zm62.2 177.87c-1.09,1.9 -2.27,3.75 -3.53,5.54l4.11 4.13c6.04,6.06 6.01,15.96 -0.05,22 -6.06,6.04 -15.96,6.01 -22,-0.05l-5.03 -5.05c-10.51,6.07 -22.7,9.57 -35.71,9.61 -26.61,-0.09 -49.82,-14.62 -62.2,-36.17 -5.2,-9.06 -9.65,-21 3.84,-26.57 14.28,-5.9 18.08,7.73 24.09,15.95 7.73,10.57 20.19,17.46 34.27,17.54 14.08,-0.08 26.54,-6.97 34.27,-17.54 6.01,-8.22 9.81,-21.85 24.09,-15.95 13.49,5.58 9.04,17.51 3.84,26.57zm-62.2 -118.66c31.41,0.19 58.33,20.3 68.68,48.26 3.03,8.19 1.83,17.91 -9.1,17.77 -4.99,-0.06 -7.2,-3.15 -10.56,-7.8 -3.9,-5.43 -9.24,-12.86 -19.14,-12.98 -9.91,-0.12 -15.31,7.17 -19.26,12.5 -3.39,4.58 -5.63,7.61 -10.62,7.55 -4.99,0.07 -7.23,-2.97 -10.62,-7.55 -3.95,-5.34 -9.35,-12.62 -19.26,-12.5 -9.9,0.12 -15.24,7.55 -19.14,12.98 -3.36,4.66 -5.58,7.75 -10.56,7.8 -10.93,0.14 -12.13,-9.58 -9.1,-17.77 10.36,-27.97 37.27,-48.07 68.68,-48.26z"/>
  </g>
 </g>
</svg>
