<?xml version="1.0" encoding="UTF-8"?>
<!DOCTYPE svg PUBLIC "-//W3C//DTD SVG 1.1//EN" "http://www.w3.org/Graphics/SVG/1.1/DTD/svg11.dtd">
<!-- Creator: CorelDRAW -->
<svg xmlns="http://www.w3.org/2000/svg" xml:space="preserve" width="6.84736in" height="2.5092in" version="1.1" style="shape-rendering:geometricPrecision; text-rendering:geometricPrecision; image-rendering:optimizeQuality; fill-rule:evenodd; clip-rule:evenodd"
viewBox="0 0 623.04 228.31"
 xmlns:xlink="http://www.w3.org/1999/xlink"
 xmlns:xodm="http://www.corel.com/coreldraw/odm/2003">
 <defs>
  <style type="text/css">
   <![CDATA[
    .fil1 {fill:black}
    .fil0 {fill:url(#id0)}
   ]]>
  </style>
  <linearGradient id="id0" gradientUnits="userSpaceOnUse" x1="137.51" y1="154" x2="8.73" y2="59.17">
   <stop offset="0" style="stop-opacity:1; stop-color:#87DD12"/>
   <stop offset="1" style="stop-opacity:1; stop-color:#0EB1E4"/>
  </linearGradient>
 </defs>
 <g id="Layer_x0020_1">
  <metadata id="CorelCorpID_0Corel-Layer"/>
  <g id="Liqwifi_CombMark_Duo_Black">
   <path class="fil0" d="M65.03 0l0 0c12.87,0 23.4,10.53 23.4,23.4l0 0c0,12.87 -10.53,23.4 -23.4,23.4l-0 0c-12.87,0 -23.4,-10.53 -23.4,-23.4l0 -0c0,-12.87 10.53,-23.4 23.4,-23.4zm57.68 164.95c-1.01,1.76 -2.11,3.48 -3.27,5.13l3.81 3.83c5.6,5.62 5.58,14.8 -0.05,20.4 -5.62,5.6 -14.8,5.58 -20.4,-0.04l-4.66 -4.68c-9.75,5.63 -21.05,8.87 -33.11,8.91 -24.68,-0.08 -46.2,-13.56 -57.68,-33.54 -4.82,-8.4 -8.95,-19.47 3.56,-24.64 13.25,-5.47 16.77,7.17 22.34,14.79 7.17,9.8 18.72,16.19 31.78,16.26 13.06,-0.07 24.62,-6.46 31.78,-16.26 5.57,-7.62 9.1,-20.26 22.34,-14.79 12.51,5.17 8.38,16.24 3.56,24.64zm-57.68 -110.04c29.13,0.18 54.09,18.82 63.69,44.76 2.81,7.6 1.7,16.61 -8.44,16.48 -4.62,-0.05 -6.68,-2.92 -9.8,-7.24 -3.62,-5.04 -8.57,-11.92 -17.75,-12.04 -9.19,-0.11 -14.2,6.65 -17.86,11.59 -3.14,4.25 -5.22,7.06 -9.85,7 -4.63,0.06 -6.7,-2.75 -9.85,-7 -3.66,-4.95 -8.67,-11.71 -17.86,-11.59 -9.18,0.12 -14.13,7 -17.75,12.04 -3.12,4.32 -5.17,7.18 -9.8,7.24 -10.14,0.13 -11.25,-8.88 -8.44,-16.48 9.6,-25.94 34.56,-44.58 63.69,-44.76z"/>
   <path class="fil1" d="M211.15 186.64c-1.34,0 -2.65,-0.09 -3.94,-0.28 -1.28,-0.18 -2.53,-0.46 -3.76,-0.83 -1.22,-0.37 -2.41,-0.84 -3.56,-1.39 -1.15,-0.55 -2.27,-1.2 -3.35,-1.94 -1.09,-0.74 -2.11,-1.55 -3.07,-2.43 -0.96,-0.88 -1.86,-1.84 -2.7,-2.88 -0.82,-1.01 -1.6,-2.12 -2.32,-3.31 -0.71,-1.18 -1.36,-2.42 -1.95,-3.73 -0.59,-1.33 -1.11,-2.68 -1.54,-4.06 -0.44,-1.38 -0.81,-2.82 -1.1,-4.29 -0.29,-1.44 -0.5,-2.95 -0.65,-4.51 -0.15,-1.57 -0.22,-3.15 -0.22,-4.74l0 -97.22c0,-0.73 0.06,-1.44 0.18,-2.12 0.12,-0.68 0.3,-1.33 0.55,-1.96 0.24,-0.63 0.55,-1.22 0.92,-1.78 0.37,-0.57 0.79,-1.09 1.27,-1.57 0.97,-0.97 2.09,-1.7 3.35,-2.19 0.63,-0.24 1.29,-0.43 1.96,-0.55 0.68,-0.12 1.39,-0.18 2.12,-0.18 0.73,0 1.44,0.06 2.12,0.18 0.68,0.12 1.33,0.3 1.96,0.55 0.63,0.25 1.23,0.55 1.78,0.92 0.57,0.38 1.1,0.8 1.57,1.28 0.47,0.47 0.9,1 1.28,1.57 0.37,0.55 0.67,1.15 0.92,1.78 0.24,0.63 0.43,1.29 0.55,1.96 0.12,0.68 0.18,1.39 0.18,2.12l0 97.22c0,2.09 0.2,3.99 0.58,5.69 0.19,0.84 0.43,1.63 0.71,2.37 0.28,0.74 0.62,1.43 0.99,2.08 0.37,0.63 0.76,1.18 1.16,1.63 0.39,0.44 0.8,0.8 1.24,1.09 0.41,0.28 0.84,0.48 1.3,0.62 0.45,0.14 0.94,0.21 1.45,0.21l4.45 0c0.68,0 1.34,0.06 1.98,0.18 0.63,0.12 1.24,0.31 1.82,0.56 0.58,0.24 1.13,0.56 1.64,0.94 0.51,0.37 0.99,0.81 1.43,1.3 0.43,0.49 0.82,1.01 1.14,1.57 0.32,0.55 0.6,1.15 0.81,1.77 0.21,0.62 0.37,1.26 0.48,1.93 0.11,0.69 0.16,1.39 0.16,2.1 0,1.54 -0.34,2.96 -1.01,4.23 -0.66,1.26 -1.66,2.38 -2.97,3.35 -0.63,0.46 -1.31,0.87 -2.04,1.23 -0.73,0.35 -1.49,0.64 -2.29,0.87 -0.78,0.22 -1.62,0.39 -2.52,0.51 -0.89,0.11 -1.8,0.17 -2.73,0.17l-0.36 0zm29.52 0c-1.49,0 -2.86,-0.25 -4.12,-0.75 -1.26,-0.5 -2.4,-1.26 -3.4,-2.25 -0.5,-0.49 -0.94,-1.03 -1.32,-1.6 -0.37,-0.56 -0.69,-1.17 -0.94,-1.81 -0.25,-0.63 -0.44,-1.29 -0.56,-1.98 -0.13,-0.7 -0.19,-1.41 -0.19,-2.13l0 -79.23c0,-1.55 0.25,-2.96 0.75,-4.23 0.51,-1.29 1.27,-2.42 2.28,-3.4 0.5,-0.48 1.04,-0.91 1.6,-1.27 0.58,-0.37 1.18,-0.67 1.81,-0.91 0.63,-0.24 1.29,-0.42 1.98,-0.54 0.68,-0.12 1.39,-0.18 2.12,-0.18 0.76,0 1.49,0.06 2.2,0.18 0.7,0.12 1.38,0.3 2.01,0.54 0.65,0.25 1.26,0.55 1.82,0.92 0.58,0.37 1.11,0.8 1.59,1.28 0.48,0.48 0.91,1.01 1.28,1.59 0.36,0.56 0.67,1.17 0.92,1.82 0.24,0.63 0.42,1.31 0.54,2.01 0.12,0.7 0.18,1.44 0.18,2.2l0 79.23c0,0.73 -0.06,1.44 -0.18,2.13 -0.12,0.68 -0.3,1.35 -0.54,1.97 -0.25,0.64 -0.56,1.25 -0.91,1.81 -0.36,0.56 -0.79,1.1 -1.27,1.6 -0.48,0.5 -1.01,0.95 -1.59,1.33 -0.57,0.38 -1.18,0.7 -1.83,0.96 -0.64,0.25 -1.32,0.44 -2.02,0.56 -0.7,0.12 -1.44,0.19 -2.2,0.19zm0 -113.24c-0.89,0 -1.76,-0.08 -2.6,-0.25 -0.85,-0.16 -1.66,-0.41 -2.44,-0.74 -0.78,-0.33 -1.53,-0.74 -2.24,-1.22 -0.72,-0.49 -1.4,-1.06 -2.03,-1.69 -0.64,-0.64 -1.2,-1.32 -1.69,-2.03 -0.49,-0.72 -0.9,-1.47 -1.23,-2.24 -0.33,-0.78 -0.57,-1.6 -0.73,-2.44 -0.16,-0.84 -0.25,-1.71 -0.25,-2.6 0,-0.89 0.08,-1.76 0.25,-2.6 0.16,-0.85 0.41,-1.66 0.74,-2.44 0.33,-0.78 0.74,-1.52 1.22,-2.24 0.48,-0.71 1.05,-1.39 1.69,-2.03 0.63,-0.64 1.31,-1.2 2.03,-1.7 0.71,-0.49 1.46,-0.9 2.24,-1.22 0.78,-0.33 1.59,-0.57 2.44,-0.74 0.84,-0.16 1.71,-0.25 2.6,-0.25 1.79,0 3.47,0.33 5.03,0.98 1.56,0.65 2.99,1.63 4.28,2.92 1.29,1.29 2.26,2.72 2.92,4.28 0.65,1.56 0.98,3.24 0.98,5.03 0,0.89 -0.08,1.76 -0.25,2.6 -0.16,0.85 -0.41,1.66 -0.74,2.44 -0.33,0.78 -0.74,1.53 -1.22,2.24 -0.49,0.72 -1.06,1.4 -1.69,2.03 -0.65,0.64 -1.33,1.21 -2.04,1.69 -0.71,0.49 -1.46,0.9 -2.24,1.22 -0.78,0.33 -1.59,0.57 -2.44,0.74 -0.84,0.16 -1.71,0.25 -2.6,0.25zm75.46 12.22c2.34,0 4.63,0.14 6.87,0.42 2.23,0.28 4.42,0.7 6.56,1.26 2.13,0.56 4.22,1.26 6.24,2.09 2.04,0.84 4.01,1.82 5.9,2.93 1.9,1.11 3.71,2.33 5.43,3.66 1.71,1.32 3.33,2.75 4.84,4.28 1.52,1.53 2.94,3.17 4.25,4.9 1.3,1.72 2.52,3.56 3.64,5.51 1.13,1.96 2.11,3.96 2.94,5.99 0.83,2.03 1.52,4.14 2.09,6.32 0.56,2.17 0.98,4.39 1.26,6.65 0.28,2.27 0.42,4.59 0.42,6.96l0 81.19c0,0.76 -0.06,1.49 -0.18,2.2 -0.12,0.7 -0.3,1.38 -0.54,2.01 -0.25,0.65 -0.55,1.26 -0.91,1.82 -0.37,0.58 -0.8,1.11 -1.28,1.59 -0.49,0.49 -1.03,0.92 -1.59,1.28 -0.56,0.36 -1.17,0.67 -1.82,0.91 -0.63,0.24 -1.31,0.42 -2.01,0.54 -0.7,0.12 -1.44,0.18 -2.2,0.18 -0.73,0 -1.44,-0.06 -2.13,-0.18 -0.68,-0.12 -1.34,-0.3 -1.97,-0.54 -0.62,-0.24 -1.23,-0.54 -1.8,-0.91 -0.57,-0.37 -1.11,-0.79 -1.6,-1.27 -0.5,-0.48 -0.95,-1.02 -1.33,-1.59 -0.38,-0.57 -0.7,-1.18 -0.95,-1.82 -0.25,-0.64 -0.44,-1.32 -0.56,-2.02 -0.12,-0.7 -0.19,-1.44 -0.19,-2.2l0 -44.24c-0.41,0.42 -0.82,0.84 -1.25,1.24 -1.06,1.02 -2.16,1.98 -3.3,2.88 -1.32,1.03 -2.68,1.99 -4.08,2.86 -1.4,0.87 -2.88,1.68 -4.43,2.42 -1.53,0.73 -3.1,1.38 -4.7,1.94 -1.6,0.55 -3.22,1.01 -4.87,1.38 -1.66,0.37 -3.35,0.65 -5.06,0.83 -1.73,0.18 -3.47,0.28 -5.22,0.28 -2.18,0 -4.33,-0.14 -6.44,-0.42 -2.1,-0.27 -4.15,-0.69 -6.16,-1.24 -2,-0.55 -3.96,-1.24 -5.86,-2.07 -1.91,-0.83 -3.76,-1.8 -5.54,-2.89 -1.79,-1.1 -3.48,-2.31 -5.09,-3.63 -1.59,-1.31 -3.1,-2.73 -4.52,-4.26 -1.42,-1.54 -2.74,-3.17 -3.94,-4.89 -1.22,-1.73 -2.34,-3.57 -3.36,-5.5 -1.02,-1.93 -1.91,-3.93 -2.69,-5.99 -0.77,-2.06 -1.41,-4.17 -1.92,-6.31 -0.51,-2.15 -0.89,-4.36 -1.15,-6.63 -0.25,-2.27 -0.38,-4.58 -0.38,-6.94 0,-4.75 0.55,-9.28 1.65,-13.6 1.1,-4.32 2.75,-8.42 4.95,-12.31 1.1,-1.94 2.31,-3.78 3.61,-5.51 1.31,-1.73 2.73,-3.37 4.25,-4.9 1.52,-1.53 3.15,-2.96 4.88,-4.28 1.72,-1.32 3.56,-2.54 5.51,-3.65 1.94,-1.11 3.94,-2.09 5.98,-2.93 2.05,-0.84 4.15,-1.54 6.28,-2.09 2.16,-0.56 4.36,-0.98 6.59,-1.26 2.25,-0.28 4.54,-0.42 6.88,-0.42zm0 82.8c1.44,0 2.83,-0.09 4.16,-0.26 1.34,-0.17 2.65,-0.43 3.94,-0.78 1.27,-0.34 2.52,-0.78 3.73,-1.29 1.2,-0.52 2.38,-1.12 3.53,-1.82 1.14,-0.69 2.23,-1.44 3.25,-2.27 1.02,-0.82 1.98,-1.7 2.88,-2.65 0.9,-0.95 1.73,-1.96 2.5,-3.03 0.77,-1.07 1.48,-2.21 2.14,-3.43 0.65,-1.2 1.22,-2.45 1.72,-3.74 0.49,-1.3 0.91,-2.61 1.23,-3.95 0.32,-1.34 0.57,-2.74 0.73,-4.2 0.16,-1.43 0.24,-2.91 0.24,-4.44 0,-3.04 -0.33,-5.93 -0.98,-8.65 -0.65,-2.73 -1.63,-5.32 -2.94,-7.76 -0.65,-1.21 -1.36,-2.37 -2.14,-3.46 -0.77,-1.08 -1.61,-2.11 -2.51,-3.06 -0.9,-0.95 -1.86,-1.84 -2.88,-2.66 -1.01,-0.82 -2.1,-1.58 -3.25,-2.27 -1.13,-0.69 -2.31,-1.29 -3.53,-1.82 -1.21,-0.52 -2.45,-0.95 -3.73,-1.3 -1.29,-0.35 -2.61,-0.61 -3.94,-0.78 -1.34,-0.17 -2.73,-0.26 -4.16,-0.26 -1.44,0 -2.83,0.09 -4.16,0.26 -1.34,0.17 -2.65,0.43 -3.94,0.78 -1.28,0.34 -2.52,0.78 -3.73,1.3 -1.22,0.52 -2.4,1.13 -3.53,1.81 -1.15,0.7 -2.24,1.46 -3.26,2.28 -1.03,0.82 -1.99,1.72 -2.9,2.67 -0.9,0.95 -1.74,1.97 -2.54,3.07 -0.79,1.1 -1.52,2.25 -2.18,3.46 -0.67,1.22 -1.25,2.48 -1.75,3.77 -0.5,1.29 -0.92,2.62 -1.25,3.98 -0.33,1.35 -0.58,2.76 -0.75,4.21 -0.17,1.43 -0.25,2.91 -0.25,4.44 0,3.03 0.33,5.91 1,8.62 0.67,2.71 1.67,5.27 3,7.69 0.67,1.21 1.39,2.35 2.18,3.42 0.78,1.07 1.63,2.09 2.54,3.04 0.91,0.95 1.87,1.84 2.89,2.65 1.03,0.82 2.12,1.58 3.26,2.27 1.15,0.69 2.33,1.3 3.54,1.81 1.21,0.52 2.45,0.95 3.73,1.29 1.29,0.35 2.61,0.61 3.94,0.78 1.33,0.17 2.72,0.26 4.16,0.26zm167.52 -82.08c1.4,0 2.65,0.19 3.75,0.57 0.57,0.2 1.1,0.45 1.59,0.76 0.49,0.31 0.93,0.67 1.33,1.08 0.38,0.4 0.72,0.84 1.01,1.32 0.28,0.46 0.52,0.97 0.71,1.52 0.18,0.52 0.32,1.08 0.41,1.68 0.09,0.6 0.14,1.21 0.14,1.83 0,0.51 -0.02,1.01 -0.06,1.5 -0.04,0.49 -0.1,0.98 -0.18,1.46 -0.08,0.46 -0.18,0.92 -0.31,1.38 -0.11,0.42 -0.25,0.85 -0.42,1.29l-26.35 79.06c-0.17,0.5 -0.38,0.97 -0.62,1.41 -0.24,0.45 -0.52,0.88 -0.84,1.29 -0.31,0.4 -0.65,0.79 -1.03,1.15 -0.38,0.37 -0.79,0.71 -1.22,1.03 -0.44,0.32 -0.91,0.61 -1.38,0.86 -0.48,0.25 -0.97,0.46 -1.47,0.62 -0.49,0.16 -1.01,0.28 -1.56,0.37 -0.54,0.09 -1.08,0.13 -1.61,0.13 -0.57,0 -1.13,-0.04 -1.69,-0.12 -0.55,-0.08 -1.09,-0.21 -1.62,-0.37 -0.52,-0.16 -1.03,-0.37 -1.52,-0.61 -0.49,-0.24 -0.97,-0.53 -1.43,-0.85 -0.45,-0.31 -0.87,-0.66 -1.27,-1.04 -0.39,-0.38 -0.74,-0.77 -1.04,-1.17 -0.31,-0.41 -0.58,-0.85 -0.81,-1.32 -0.23,-0.47 -0.42,-0.95 -0.56,-1.44l-16.09 -59.59 -16.94 59.67c-0.17,0.49 -0.39,0.96 -0.63,1.41 -0.26,0.46 -0.55,0.9 -0.86,1.3 -0.31,0.4 -0.67,0.79 -1.07,1.16 -0.39,0.36 -0.81,0.7 -1.26,1.02 -0.46,0.32 -0.93,0.61 -1.41,0.85 -0.48,0.24 -0.98,0.45 -1.49,0.61 -0.52,0.17 -1.05,0.29 -1.57,0.37 -0.54,0.08 -1.09,0.12 -1.61,0.12 -0.53,0 -1.07,-0.04 -1.62,-0.13 -0.52,-0.07 -1.04,-0.2 -1.56,-0.37 -0.51,-0.16 -1.01,-0.37 -1.49,-0.61 -0.48,-0.24 -0.96,-0.53 -1.41,-0.85 -0.92,-0.65 -1.7,-1.38 -2.34,-2.19 -0.64,-0.82 -1.14,-1.72 -1.49,-2.7 -1.46,-6.21 -3.92,-14.58 -6.84,-23.72l-6.92 -20.76c-4.58,-13.24 -9.26,-26.02 -12.61,-34.62 -0.13,-0.41 -0.24,-0.85 -0.34,-1.29 -0.1,-0.45 -0.19,-0.9 -0.25,-1.34 -0.06,-0.45 -0.11,-0.91 -0.15,-1.38 -0.03,-0.47 -0.05,-0.94 -0.05,-1.41 0,-5.96 2.98,-8.93 8.93,-8.93 1.28,0 2.48,0.19 3.57,0.57 0.56,0.2 1.09,0.44 1.58,0.73 0.5,0.29 0.98,0.64 1.42,1.02 0.43,0.38 0.84,0.81 1.23,1.3 0.37,0.47 0.74,1 1.08,1.59 0.34,0.58 0.65,1.2 0.94,1.85 0.28,0.64 0.55,1.35 0.81,2.12l17.8 55.53 16.83 -56.91c0.16,-0.56 0.37,-1.11 0.6,-1.62 0.24,-0.53 0.5,-1.03 0.79,-1.48 0.3,-0.47 0.64,-0.92 1,-1.33 0.37,-0.42 0.77,-0.81 1.19,-1.17 0.45,-0.37 0.93,-0.7 1.43,-0.98 0.5,-0.28 1.04,-0.51 1.61,-0.69 0.56,-0.18 1.16,-0.32 1.76,-0.41 0.61,-0.09 1.25,-0.13 1.91,-0.13 1.28,0 2.48,0.18 3.57,0.55 1.1,0.37 2.09,0.92 2.97,1.66 0.43,0.35 0.83,0.75 1.19,1.16 0.36,0.41 0.69,0.86 0.99,1.33 0.29,0.46 0.56,0.96 0.8,1.48 0.23,0.52 0.43,1.06 0.6,1.62l14.79 57.83 18.04 -56.43c0.45,-1.48 1,-2.78 1.66,-3.91 0.67,-1.15 1.45,-2.12 2.33,-2.9 0.91,-0.8 1.93,-1.41 3.05,-1.81 1.11,-0.4 2.32,-0.6 3.61,-0.6zm25.43 100.31c-1.49,0 -2.86,-0.25 -4.12,-0.75 -1.26,-0.5 -2.4,-1.26 -3.4,-2.25 -0.5,-0.49 -0.94,-1.03 -1.32,-1.6 -0.37,-0.56 -0.69,-1.17 -0.94,-1.81 -0.25,-0.63 -0.44,-1.29 -0.56,-1.98 -0.13,-0.7 -0.19,-1.41 -0.19,-2.13l0 -79.23c0,-1.55 0.25,-2.96 0.75,-4.23 0.51,-1.29 1.27,-2.42 2.28,-3.4 0.5,-0.48 1.04,-0.91 1.6,-1.27 0.58,-0.37 1.18,-0.67 1.81,-0.91 0.63,-0.24 1.29,-0.42 1.98,-0.54 0.68,-0.12 1.39,-0.18 2.12,-0.18 0.76,0 1.49,0.06 2.2,0.18 0.7,0.12 1.38,0.3 2.01,0.54 0.65,0.25 1.26,0.55 1.82,0.92 0.58,0.37 1.11,0.8 1.59,1.28 0.48,0.48 0.91,1.01 1.28,1.59 0.36,0.56 0.67,1.17 0.92,1.82 0.24,0.63 0.42,1.31 0.54,2.01 0.12,0.7 0.18,1.44 0.18,2.2l0 79.23c0,0.73 -0.06,1.44 -0.18,2.13 -0.12,0.68 -0.3,1.35 -0.54,1.97 -0.25,0.64 -0.56,1.25 -0.91,1.81 -0.36,0.56 -0.79,1.1 -1.27,1.6 -0.48,0.5 -1.01,0.95 -1.58,1.33 -0.57,0.38 -1.18,0.7 -1.83,0.96 -0.64,0.25 -1.32,0.44 -2.02,0.56 -0.7,0.12 -1.44,0.19 -2.2,0.19zm0 -113.24c-0.89,0 -1.76,-0.08 -2.6,-0.25 -0.85,-0.16 -1.66,-0.41 -2.44,-0.74 -0.78,-0.33 -1.53,-0.74 -2.24,-1.22 -0.72,-0.49 -1.4,-1.06 -2.03,-1.69 -0.64,-0.64 -1.2,-1.32 -1.69,-2.03 -0.49,-0.72 -0.9,-1.47 -1.23,-2.24 -0.33,-0.78 -0.57,-1.6 -0.74,-2.44 -0.16,-0.84 -0.25,-1.71 -0.25,-2.6 0,-0.89 0.08,-1.76 0.25,-2.6 0.16,-0.85 0.41,-1.66 0.74,-2.44 0.33,-0.78 0.74,-1.52 1.22,-2.24 0.48,-0.71 1.05,-1.39 1.69,-2.03 0.63,-0.64 1.31,-1.2 2.03,-1.7 0.71,-0.49 1.46,-0.9 2.24,-1.22 0.78,-0.33 1.59,-0.57 2.44,-0.74 0.84,-0.16 1.71,-0.25 2.6,-0.25 1.79,0 3.47,0.33 5.03,0.98 1.56,0.65 2.99,1.63 4.28,2.92 1.29,1.29 2.26,2.72 2.92,4.28 0.65,1.56 0.98,3.24 0.98,5.03 0,0.89 -0.08,1.76 -0.25,2.6 -0.16,0.85 -0.41,1.66 -0.74,2.44 -0.33,0.78 -0.74,1.53 -1.22,2.24 -0.49,0.72 -1.06,1.4 -1.69,2.03 -0.65,0.64 -1.33,1.21 -2.04,1.69 -0.71,0.49 -1.46,0.9 -2.24,1.22 -0.78,0.33 -1.59,0.57 -2.44,0.74 -0.84,0.16 -1.71,0.25 -2.6,0.25zm69.59 16.5c1.41,0 2.7,0.21 3.87,0.62 0.59,0.21 1.16,0.47 1.69,0.79 0.53,0.32 1.03,0.69 1.48,1.11 0.47,0.43 0.88,0.9 1.22,1.4 0.35,0.52 0.65,1.06 0.88,1.62 0.22,0.55 0.4,1.15 0.51,1.79 0.12,0.63 0.17,1.29 0.17,1.96 0,0.63 -0.06,1.23 -0.17,1.82 -0.11,0.58 -0.29,1.14 -0.53,1.69 -0.23,0.53 -0.52,1.05 -0.88,1.54 -0.35,0.49 -0.76,0.94 -1.21,1.36 -0.45,0.42 -0.95,0.79 -1.49,1.11 -0.52,0.31 -1.09,0.58 -1.68,0.79 -0.58,0.21 -1.2,0.36 -1.85,0.46 -0.65,0.1 -1.33,0.16 -2.01,0.16l-16.88 0 0 67.99c0,1.43 -0.25,2.77 -0.75,4.01 -0.5,1.24 -1.25,2.38 -2.24,3.4 -0.5,0.52 -1.04,0.97 -1.6,1.36 -0.57,0.39 -1.17,0.72 -1.81,0.98 -0.63,0.26 -1.3,0.46 -1.99,0.58 -0.69,0.13 -1.41,0.2 -2.14,0.2 -1.49,0 -2.88,-0.26 -4.14,-0.78 -1.26,-0.52 -2.4,-1.3 -3.4,-2.33 -0.49,-0.51 -0.93,-1.05 -1.3,-1.62 -0.38,-0.57 -0.69,-1.17 -0.94,-1.79 -0.25,-0.62 -0.44,-1.27 -0.56,-1.95 -0.13,-0.67 -0.19,-1.36 -0.19,-2.07l0 -67.99 -6.2 0c-0.69,0 -1.36,-0.05 -2.01,-0.16 -0.65,-0.1 -1.28,-0.26 -1.85,-0.46 -0.6,-0.21 -1.16,-0.48 -1.68,-0.79 -0.53,-0.32 -1.03,-0.69 -1.49,-1.11 -0.45,-0.42 -0.86,-0.87 -1.21,-1.36 -0.35,-0.49 -0.65,-1.01 -0.88,-1.54 -0.23,-0.55 -0.41,-1.12 -0.53,-1.69 -0.11,-0.58 -0.17,-1.19 -0.17,-1.82 0,-0.67 0.06,-1.33 0.17,-1.96 0.12,-0.64 0.29,-1.24 0.51,-1.79 0.23,-0.56 0.52,-1.1 0.88,-1.62 0.34,-0.5 0.75,-0.97 1.22,-1.4 0.46,-0.42 0.95,-0.79 1.48,-1.11 0.53,-0.32 1.09,-0.58 1.69,-0.79 0.58,-0.21 1.2,-0.36 1.85,-0.46 0.65,-0.1 1.33,-0.16 2.01,-0.16l6.2 0 0 -1.57c0,-3.51 0.27,-6.85 0.8,-9.99 0.53,-3.15 1.34,-6.11 2.42,-8.87 1.08,-2.78 2.43,-5.36 4.05,-7.73 1.62,-2.37 3.51,-4.55 5.67,-6.53 2.17,-1.98 4.63,-3.71 7.37,-5.19 2.74,-1.47 5.77,-2.7 9.09,-3.68 3.3,-0.97 6.88,-1.7 10.74,-2.19 3.85,-0.48 7.99,-0.72 12.41,-0.72 2.15,0 4.23,0.09 6.22,0.28 1.98,0.18 3.86,0.46 5.62,0.83 1.78,0.37 3.46,0.83 5.02,1.39 1.58,0.56 3.05,1.22 4.4,1.96 1.38,0.76 2.59,1.58 3.64,2.46 1.06,0.89 1.95,1.85 2.66,2.87 0.73,1.04 1.28,2.15 1.65,3.31 0.37,1.16 0.55,2.39 0.55,3.66 0,1.5 -0.24,2.84 -0.72,4 -0.49,1.19 -1.24,2.2 -2.22,3 -0.95,0.77 -2.12,1.35 -3.51,1.73 -1.34,0.37 -2.88,0.55 -4.62,0.55 -0.57,0 -1.14,-0.03 -1.72,-0.09 -0.56,-0.06 -1.12,-0.15 -1.68,-0.28 -0.55,-0.12 -1.1,-0.28 -1.62,-0.46 -0.53,-0.19 -1.06,-0.4 -1.56,-0.65 -0.48,-0.23 -0.97,-0.49 -1.49,-0.78 -0.54,-0.3 -1.06,-0.61 -1.57,-0.92 -0.52,-0.32 -1.06,-0.68 -1.62,-1.06 -0.55,-0.38 -1.12,-0.78 -1.69,-1.2l-1.98 -1.28c-0.64,-0.4 -1.25,-0.77 -1.84,-1.11 -0.6,-0.34 -1.15,-0.65 -1.67,-0.92 -0.53,-0.28 -1.02,-0.52 -1.48,-0.73 -0.41,-0.19 -0.86,-0.36 -1.35,-0.51 -0.45,-0.15 -0.95,-0.27 -1.47,-0.38 -0.5,-0.1 -1.02,-0.18 -1.56,-0.23 -0.52,-0.05 -1.08,-0.07 -1.69,-0.07 -16.12,0 -24.19,9.84 -24.19,29.53l0 1.57 16.88 0zm31.87 -3.56c0.76,0 1.49,0.06 2.2,0.18 0.7,0.12 1.38,0.3 2.01,0.54 0.65,0.25 1.26,0.55 1.82,0.92 0.58,0.37 1.11,0.8 1.59,1.28 0.48,0.48 0.91,1.01 1.28,1.59 0.36,0.56 0.67,1.17 0.92,1.82 0.24,0.63 0.42,1.31 0.54,2.01 0.12,0.7 0.18,1.44 0.18,2.2l0 79.23c0,0.73 -0.06,1.44 -0.18,2.13 -0.12,0.68 -0.3,1.35 -0.54,1.97 -0.25,0.64 -0.56,1.25 -0.91,1.81 -0.36,0.56 -0.79,1.1 -1.27,1.6 -0.48,0.5 -1.01,0.95 -1.58,1.33 -0.57,0.38 -1.18,0.7 -1.83,0.96 -0.64,0.25 -1.32,0.44 -2.02,0.56 -0.7,0.12 -1.44,0.19 -2.2,0.19 -1.49,0 -2.86,-0.25 -4.12,-0.75 -1.27,-0.51 -2.41,-1.26 -3.4,-2.26 -0.49,-0.49 -0.93,-1.03 -1.31,-1.6 -0.37,-0.56 -0.69,-1.17 -0.94,-1.81 -0.25,-0.63 -0.44,-1.29 -0.56,-1.98 -0.13,-0.7 -0.19,-1.41 -0.19,-2.13l0 -79.23c0,-0.76 0.06,-1.5 0.19,-2.2 0.12,-0.7 0.31,-1.38 0.56,-2.02 0.25,-0.64 0.57,-1.25 0.95,-1.82 0.38,-0.57 0.83,-1.1 1.33,-1.59 0.5,-0.48 1.03,-0.91 1.6,-1.27 0.57,-0.37 1.17,-0.67 1.81,-0.91 0.63,-0.24 1.29,-0.42 1.98,-0.54 0.68,-0.12 1.39,-0.18 2.12,-0.18z"/>
  </g>
 </g>
</svg>
